# https://github.com/mikedh/trimesh

o geometry_0
v 0.00000000 0.60000000 -0.30000000 0.08627451 0.63529412 0.63529412
v 0.00000000 1.80000000 -0.30000000 0.08627451 0.63529412 0.63529412
v 0.00000000 0.60000000 -0.90000000 0.08627451 0.63529412 0.63529412
v 0.00000000 1.80000000 -0.90000000 0.08627451 0.63529412 0.63529412
v 0.05000000 0.60000000 -0.30000000 0.08627451 0.63529412 0.63529412
v 0.05000000 1.80000000 -0.30000000 0.08627451 0.63529412 0.63529412
v 0.05000000 0.60000000 -0.90000000 0.08627451 0.63529412 0.63529412
v 0.05000000 1.80000000 -0.90000000 0.08627451 0.63529412 0.63529412
f 2 4 1
f 5 2 1
f 1 4 3
f 3 5 1
f 2 8 4
f 6 2 5
f 6 8 2
f 4 8 3
f 7 5 3
f 3 8 7
f 7 6 5
f 8 6 7

o geometry_1
v 3.15000000 0.60000000 -0.30000000 0.08627451 0.63529412 0.63529412
v 3.15000000 1.80000000 -0.30000000 0.08627451 0.63529412 0.63529412
v 3.15000000 0.60000000 -0.90000000 0.08627451 0.63529412 0.63529412
v 3.15000000 1.80000000 -0.90000000 0.08627451 0.63529412 0.63529412
v 3.20000000 0.60000000 -0.30000000 0.08627451 0.63529412 0.63529412
v 3.20000000 1.80000000 -0.30000000 0.08627451 0.63529412 0.63529412
v 3.20000000 0.60000000 -0.90000000 0.08627451 0.63529412 0.63529412
v 3.20000000 1.80000000 -0.90000000 0.08627451 0.63529412 0.63529412
f 10 12 9
f 13 10 9
f 9 12 11
f 11 13 9
f 10 16 12
f 14 10 13
f 14 16 10
f 12 16 11
f 15 13 11
f 11 16 15
f 15 14 13
f 16 14 15

o geometry_2
v 0.00000000 0.60000000 -1.20000000 0.08627451 0.63529412 0.63529412
v 0.00000000 1.80000000 -1.20000000 0.08627451 0.63529412 0.63529412
v 0.00000000 0.60000000 -1.80000000 0.08627451 0.63529412 0.63529412
v 0.00000000 1.80000000 -1.80000000 0.08627451 0.63529412 0.63529412
v 0.05000000 0.60000000 -1.20000000 0.08627451 0.63529412 0.63529412
v 0.05000000 1.80000000 -1.20000000 0.08627451 0.63529412 0.63529412
v 0.05000000 0.60000000 -1.80000000 0.08627451 0.63529412 0.63529412
v 0.05000000 1.80000000 -1.80000000 0.08627451 0.63529412 0.63529412
f 18 20 17
f 21 18 17
f 17 20 19
f 19 21 17
f 18 24 20
f 22 18 21
f 22 24 18
f 20 24 19
f 23 21 19
f 19 24 23
f 23 22 21
f 24 22 23

o geometry_3
v 3.15000000 0.60000000 -1.20000000 0.08627451 0.63529412 0.63529412
v 3.15000000 1.80000000 -1.20000000 0.08627451 0.63529412 0.63529412
v 3.15000000 0.60000000 -1.80000000 0.08627451 0.63529412 0.63529412
v 3.15000000 1.80000000 -1.80000000 0.08627451 0.63529412 0.63529412
v 3.20000000 0.60000000 -1.20000000 0.08627451 0.63529412 0.63529412
v 3.20000000 1.80000000 -1.20000000 0.08627451 0.63529412 0.63529412
v 3.20000000 0.60000000 -1.80000000 0.08627451 0.63529412 0.63529412
v 3.20000000 1.80000000 -1.80000000 0.08627451 0.63529412 0.63529412
f 26 28 25
f 29 26 25
f 25 28 27
f 27 29 25
f 26 32 28
f 30 26 29
f 30 32 26
f 28 32 27
f 31 29 27
f 27 32 31
f 31 30 29
f 32 30 31

o geometry_4
v 0.00000000 0.60000000 -2.10000000 0.08627451 0.63529412 0.63529412
v 0.00000000 1.80000000 -2.10000000 0.08627451 0.63529412 0.63529412
v 0.00000000 0.60000000 -2.70000000 0.08627451 0.63529412 0.63529412
v 0.00000000 1.80000000 -2.70000000 0.08627451 0.63529412 0.63529412
v 0.05000000 0.60000000 -2.10000000 0.08627451 0.63529412 0.63529412
v 0.05000000 1.80000000 -2.10000000 0.08627451 0.63529412 0.63529412
v 0.05000000 0.60000000 -2.70000000 0.08627451 0.63529412 0.63529412
v 0.05000000 1.80000000 -2.70000000 0.08627451 0.63529412 0.63529412
f 34 36 33
f 37 34 33
f 33 36 35
f 35 37 33
f 34 40 36
f 38 34 37
f 38 40 34
f 36 40 35
f 39 37 35
f 35 40 39
f 39 38 37
f 40 38 39

o geometry_5
v 3.15000000 0.60000000 -2.10000000 0.08627451 0.63529412 0.63529412
v 3.15000000 1.80000000 -2.10000000 0.08627451 0.63529412 0.63529412
v 3.15000000 0.60000000 -2.70000000 0.08627451 0.63529412 0.63529412
v 3.15000000 1.80000000 -2.70000000 0.08627451 0.63529412 0.63529412
v 3.20000000 0.60000000 -2.10000000 0.08627451 0.63529412 0.63529412
v 3.20000000 1.80000000 -2.10000000 0.08627451 0.63529412 0.63529412
v 3.20000000 0.60000000 -2.70000000 0.08627451 0.63529412 0.63529412
v 3.20000000 1.80000000 -2.70000000 0.08627451 0.63529412 0.63529412
f 42 44 41
f 45 42 41
f 41 44 43
f 43 45 41
f 42 48 44
f 46 42 45
f 46 48 42
f 44 48 43
f 47 45 43
f 43 48 47
f 47 46 45
f 48 46 47

o geometry_6
v 1.90000000 0.60000000 0.00000000 0.08627451 0.63529412 0.63529412
v 1.90000000 1.80000000 0.00000000 0.08627451 0.63529412 0.63529412
v 1.90000000 0.60000000 -0.05000000 0.08627451 0.63529412 0.63529412
v 1.90000000 1.80000000 -0.05000000 0.08627451 0.63529412 0.63529412
v 2.50000000 0.60000000 0.00000000 0.08627451 0.63529412 0.63529412
v 2.50000000 1.80000000 0.00000000 0.08627451 0.63529412 0.63529412
v 2.50000000 0.60000000 -0.05000000 0.08627451 0.63529412 0.63529412
v 2.50000000 1.80000000 -0.05000000 0.08627451 0.63529412 0.63529412
f 50 52 49
f 53 50 49
f 49 52 51
f 51 53 49
f 50 56 52
f 54 50 53
f 54 56 50
f 52 56 51
f 55 53 51
f 51 56 55
f 55 54 53
f 56 54 55

o geometry_7
v 1.90000000 0.60000000 -2.95000000 0.08627451 0.63529412 0.63529412
v 1.90000000 1.80000000 -2.95000000 0.08627451 0.63529412 0.63529412
v 1.90000000 0.60000000 -3.00000000 0.08627451 0.63529412 0.63529412
v 1.90000000 1.80000000 -3.00000000 0.08627451 0.63529412 0.63529412
v 2.50000000 0.60000000 -2.95000000 0.08627451 0.63529412 0.63529412
v 2.50000000 1.80000000 -2.95000000 0.08627451 0.63529412 0.63529412
v 2.50000000 0.60000000 -3.00000000 0.08627451 0.63529412 0.63529412
v 2.50000000 1.80000000 -3.00000000 0.08627451 0.63529412 0.63529412
f 58 60 57
f 61 58 57
f 57 60 59
f 59 61 57
f 58 64 60
f 62 58 61
f 62 64 58
f 60 64 59
f 63 61 59
f 59 64 63
f 63 62 61
f 64 62 63

o geometry_8
v 1.10000000 0.60000000 0.00000000 0.08627451 0.63529412 0.63529412
v 1.10000000 1.80000000 0.00000000 0.08627451 0.63529412 0.63529412
v 1.10000000 0.60000000 -0.05000000 0.08627451 0.63529412 0.63529412
v 1.10000000 1.80000000 -0.05000000 0.08627451 0.63529412 0.63529412
v 1.70000000 0.60000000 0.00000000 0.08627451 0.63529412 0.63529412
v 1.70000000 1.80000000 0.00000000 0.08627451 0.63529412 0.63529412
v 1.70000000 0.60000000 -0.05000000 0.08627451 0.63529412 0.63529412
v 1.70000000 1.80000000 -0.05000000 0.08627451 0.63529412 0.63529412
f 66 68 65
f 69 66 65
f 65 68 67
f 67 69 65
f 66 72 68
f 70 66 69
f 70 72 66
f 68 72 67
f 71 69 67
f 67 72 71
f 71 70 69
f 72 70 71

o geometry_9
v 1.10000000 0.60000000 -2.95000000 0.08627451 0.63529412 0.63529412
v 1.10000000 1.80000000 -2.95000000 0.08627451 0.63529412 0.63529412
v 1.10000000 0.60000000 -3.00000000 0.08627451 0.63529412 0.63529412
v 1.10000000 1.80000000 -3.00000000 0.08627451 0.63529412 0.63529412
v 1.70000000 0.60000000 -2.95000000 0.08627451 0.63529412 0.63529412
v 1.70000000 1.80000000 -2.95000000 0.08627451 0.63529412 0.63529412
v 1.70000000 0.60000000 -3.00000000 0.08627451 0.63529412 0.63529412
v 1.70000000 1.80000000 -3.00000000 0.08627451 0.63529412 0.63529412
f 74 76 73
f 77 74 73
f 73 76 75
f 75 77 73
f 74 80 76
f 78 74 77
f 78 80 74
f 76 80 75
f 79 77 75
f 75 80 79
f 79 78 77
f 80 78 79

o geometry_10
v 1.30000000 2.53000000 -0.90000000 0.24705882 0.60784314 0.35294118
v 1.30000000 2.58000000 -0.90000000 0.24705882 0.60784314 0.35294118
v 1.30000000 2.53000000 -2.10000000 0.24705882 0.60784314 0.35294118
v 1.30000000 2.58000000 -2.10000000 0.24705882 0.60784314 0.35294118
v 1.90000000 2.53000000 -0.90000000 0.24705882 0.60784314 0.35294118
v 1.90000000 2.58000000 -0.90000000 0.24705882 0.60784314 0.35294118
v 1.90000000 2.53000000 -2.10000000 0.24705882 0.60784314 0.35294118
v 1.90000000 2.58000000 -2.10000000 0.24705882 0.60784314 0.35294118
f 82 84 81
f 85 82 81
f 81 84 83
f 83 85 81
f 82 88 84
f 86 82 85
f 86 88 82
f 84 88 83
f 87 85 83
f 83 88 87
f 87 86 85
f 88 86 87

o geometry_11
v 2.00000000 2.53000000 -0.90000000 0.24705882 0.60784314 0.35294118
v 2.00000000 2.58000000 -0.90000000 0.24705882 0.60784314 0.35294118
v 2.00000000 2.53000000 -2.10000000 0.24705882 0.60784314 0.35294118
v 2.00000000 2.58000000 -2.10000000 0.24705882 0.60784314 0.35294118
v 2.60000000 2.53000000 -0.90000000 0.24705882 0.60784314 0.35294118
v 2.60000000 2.58000000 -0.90000000 0.24705882 0.60784314 0.35294118
v 2.60000000 2.53000000 -2.10000000 0.24705882 0.60784314 0.35294118
v 2.60000000 2.58000000 -2.10000000 0.24705882 0.60784314 0.35294118
f 90 92 89
f 93 90 89
f 89 92 91
f 91 93 89
f 90 96 92
f 94 90 93
f 94 96 90
f 92 96 91
f 95 93 91
f 91 96 95
f 95 94 93
f 96 94 95

o geometry_12
v 0.01200000 0.16200000 -0.01200000 0.94117647 0.54901961 0.03921569
v 0.60000000 0.16200000 -0.01200000 0.94117647 0.54901961 0.03921569
v 0.01200000 0.16200000 -0.60000000 0.94117647 0.54901961 0.03921569
v 0.01200000 1.33800000 -0.01200000 0.94117647 0.54901961 0.03921569
v 0.60000000 1.33800000 -0.01200000 0.94117647 0.54901961 0.03921569
v 0.01200000 1.33800000 -0.60000000 0.94117647 0.54901961 0.03921569
f 97 99 98
f 100 101 102
f 97 98 101
f 97 101 100
f 98 99 102
f 98 102 101
f 99 97 100
f 99 100 102

o geometry_13
v 0.00000000 0.15000000 0.00000000 0.78823529 0.63529412 0.15294118
v 0.00000000 1.35000000 0.00000000 0.78823529 0.63529412 0.15294118
v 0.00000000 0.15000000 -0.01200000 0.78823529 0.63529412 0.15294118
v 0.00000000 1.35000000 -0.01200000 0.78823529 0.63529412 0.15294118
v 0.60000000 0.15000000 0.00000000 0.78823529 0.63529412 0.15294118
v 0.60000000 1.35000000 0.00000000 0.78823529 0.63529412 0.15294118
v 0.60000000 0.15000000 -0.01200000 0.78823529 0.63529412 0.15294118
v 0.60000000 1.35000000 -0.01200000 0.78823529 0.63529412 0.15294118
f 104 106 103
f 107 104 103
f 103 106 105
f 105 107 103
f 104 110 106
f 108 104 107
f 108 110 104
f 106 110 105
f 109 107 105
f 105 110 109
f 109 108 107
f 110 108 109

o geometry_14
v 0.00000000 0.15000000 0.00000000 0.78823529 0.63529412 0.15294118
v 0.00000000 1.35000000 0.00000000 0.78823529 0.63529412 0.15294118
v 0.00000000 0.15000000 -0.60000000 0.78823529 0.63529412 0.15294118
v 0.00000000 1.35000000 -0.60000000 0.78823529 0.63529412 0.15294118
v 0.01200000 0.15000000 0.00000000 0.78823529 0.63529412 0.15294118
v 0.01200000 1.35000000 0.00000000 0.78823529 0.63529412 0.15294118
v 0.01200000 0.15000000 -0.60000000 0.78823529 0.63529412 0.15294118
v 0.01200000 1.35000000 -0.60000000 0.78823529 0.63529412 0.15294118
f 112 114 111
f 115 112 111
f 111 114 113
f 113 115 111
f 112 118 114
f 116 112 115
f 116 118 112
f 114 118 113
f 117 115 113
f 113 118 117
f 117 116 115
f 118 116 117

o geometry_15
v 0.00000000 0.15000000 0.00000000 0.78823529 0.63529412 0.15294118
v 0.60000000 0.15000000 0.00000000 0.78823529 0.63529412 0.15294118
v 0.00000000 0.15000000 -0.60000000 0.78823529 0.63529412 0.15294118
v 0.00000000 0.16200000 0.00000000 0.78823529 0.63529412 0.15294118
v 0.60000000 0.16200000 0.00000000 0.78823529 0.63529412 0.15294118
v 0.00000000 0.16200000 -0.60000000 0.78823529 0.63529412 0.15294118
f 119 121 120
f 122 123 124
f 119 120 123
f 119 123 122
f 120 121 124
f 120 124 123
f 121 119 122
f 121 122 124

o geometry_16
v 0.00000000 1.33800000 0.00000000 0.78823529 0.63529412 0.15294118
v 0.60000000 1.33800000 0.00000000 0.78823529 0.63529412 0.15294118
v 0.00000000 1.33800000 -0.60000000 0.78823529 0.63529412 0.15294118
v 0.00000000 1.35000000 0.00000000 0.78823529 0.63529412 0.15294118
v 0.60000000 1.35000000 0.00000000 0.78823529 0.63529412 0.15294118
v 0.00000000 1.35000000 -0.60000000 0.78823529 0.63529412 0.15294118
f 125 127 126
f 128 129 130
f 125 126 129
f 125 129 128
f 126 127 130
f 126 130 129
f 127 125 128
f 127 128 130

o geometry_17
v 0.01200000 1.36200000 -0.01200000 0.94117647 0.54901961 0.03921569
v 0.60000000 1.36200000 -0.01200000 0.94117647 0.54901961 0.03921569
v 0.01200000 1.36200000 -0.60000000 0.94117647 0.54901961 0.03921569
v 0.01200000 2.53800000 -0.01200000 0.94117647 0.54901961 0.03921569
v 0.60000000 2.53800000 -0.01200000 0.94117647 0.54901961 0.03921569
v 0.01200000 2.53800000 -0.60000000 0.94117647 0.54901961 0.03921569
f 131 133 132
f 134 135 136
f 131 132 135
f 131 135 134
f 132 133 136
f 132 136 135
f 133 131 134
f 133 134 136

o geometry_18
v 0.00000000 1.35000000 0.00000000 0.78823529 0.63529412 0.15294118
v 0.00000000 2.55000000 0.00000000 0.78823529 0.63529412 0.15294118
v 0.00000000 1.35000000 -0.01200000 0.78823529 0.63529412 0.15294118
v 0.00000000 2.55000000 -0.01200000 0.78823529 0.63529412 0.15294118
v 0.60000000 1.35000000 0.00000000 0.78823529 0.63529412 0.15294118
v 0.60000000 2.55000000 0.00000000 0.78823529 0.63529412 0.15294118
v 0.60000000 1.35000000 -0.01200000 0.78823529 0.63529412 0.15294118
v 0.60000000 2.55000000 -0.01200000 0.78823529 0.63529412 0.15294118
f 138 140 137
f 141 138 137
f 137 140 139
f 139 141 137
f 138 144 140
f 142 138 141
f 142 144 138
f 140 144 139
f 143 141 139
f 139 144 143
f 143 142 141
f 144 142 143

o geometry_19
v 0.00000000 1.35000000 0.00000000 0.78823529 0.63529412 0.15294118
v 0.00000000 2.55000000 0.00000000 0.78823529 0.63529412 0.15294118
v 0.00000000 1.35000000 -0.60000000 0.78823529 0.63529412 0.15294118
v 0.00000000 2.55000000 -0.60000000 0.78823529 0.63529412 0.15294118
v 0.01200000 1.35000000 0.00000000 0.78823529 0.63529412 0.15294118
v 0.01200000 2.55000000 0.00000000 0.78823529 0.63529412 0.15294118
v 0.01200000 1.35000000 -0.60000000 0.78823529 0.63529412 0.15294118
v 0.01200000 2.55000000 -0.60000000 0.78823529 0.63529412 0.15294118
f 146 148 145
f 149 146 145
f 145 148 147
f 147 149 145
f 146 152 148
f 150 146 149
f 150 152 146
f 148 152 147
f 151 149 147
f 147 152 151
f 151 150 149
f 152 150 151

o geometry_20
v 0.00000000 1.35000000 0.00000000 0.78823529 0.63529412 0.15294118
v 0.60000000 1.35000000 0.00000000 0.78823529 0.63529412 0.15294118
v 0.00000000 1.35000000 -0.60000000 0.78823529 0.63529412 0.15294118
v 0.00000000 1.36200000 0.00000000 0.78823529 0.63529412 0.15294118
v 0.60000000 1.36200000 0.00000000 0.78823529 0.63529412 0.15294118
v 0.00000000 1.36200000 -0.60000000 0.78823529 0.63529412 0.15294118
f 153 155 154
f 156 157 158
f 153 154 157
f 153 157 156
f 154 155 158
f 154 158 157
f 155 153 156
f 155 156 158

o geometry_21
v 0.00000000 2.53800000 0.00000000 0.78823529 0.63529412 0.15294118
v 0.60000000 2.53800000 0.00000000 0.78823529 0.63529412 0.15294118
v 0.00000000 2.53800000 -0.60000000 0.78823529 0.63529412 0.15294118
v 0.00000000 2.55000000 0.00000000 0.78823529 0.63529412 0.15294118
v 0.60000000 2.55000000 0.00000000 0.78823529 0.63529412 0.15294118
v 0.00000000 2.55000000 -0.60000000 0.78823529 0.63529412 0.15294118
f 159 161 160
f 162 163 164
f 159 160 163
f 159 163 162
f 160 161 164
f 160 164 163
f 161 159 162
f 161 162 164

o geometry_22
v 3.18800000 0.16200000 -0.01200000 0.94117647 0.54901961 0.03921569
v 2.60000000 0.16200000 -0.01200000 0.94117647 0.54901961 0.03921569
v 3.18800000 0.16200000 -0.60000000 0.94117647 0.54901961 0.03921569
v 3.18800000 1.33800000 -0.01200000 0.94117647 0.54901961 0.03921569
v 2.60000000 1.33800000 -0.01200000 0.94117647 0.54901961 0.03921569
v 3.18800000 1.33800000 -0.60000000 0.94117647 0.54901961 0.03921569
f 165 167 166
f 168 169 170
f 165 166 169
f 165 169 168
f 166 167 170
f 166 170 169
f 167 165 168
f 167 168 170

o geometry_23
v 2.60000000 0.15000000 0.00000000 0.78823529 0.63529412 0.15294118
v 2.60000000 1.35000000 0.00000000 0.78823529 0.63529412 0.15294118
v 2.60000000 0.15000000 -0.01200000 0.78823529 0.63529412 0.15294118
v 2.60000000 1.35000000 -0.01200000 0.78823529 0.63529412 0.15294118
v 3.20000000 0.15000000 0.00000000 0.78823529 0.63529412 0.15294118
v 3.20000000 1.35000000 0.00000000 0.78823529 0.63529412 0.15294118
v 3.20000000 0.15000000 -0.01200000 0.78823529 0.63529412 0.15294118
v 3.20000000 1.35000000 -0.01200000 0.78823529 0.63529412 0.15294118
f 172 174 171
f 175 172 171
f 171 174 173
f 173 175 171
f 172 178 174
f 176 172 175
f 176 178 172
f 174 178 173
f 177 175 173
f 173 178 177
f 177 176 175
f 178 176 177

o geometry_24
v 3.18800000 0.15000000 0.00000000 0.78823529 0.63529412 0.15294118
v 3.18800000 1.35000000 0.00000000 0.78823529 0.63529412 0.15294118
v 3.18800000 0.15000000 -0.60000000 0.78823529 0.63529412 0.15294118
v 3.18800000 1.35000000 -0.60000000 0.78823529 0.63529412 0.15294118
v 3.20000000 0.15000000 0.00000000 0.78823529 0.63529412 0.15294118
v 3.20000000 1.35000000 0.00000000 0.78823529 0.63529412 0.15294118
v 3.20000000 0.15000000 -0.60000000 0.78823529 0.63529412 0.15294118
v 3.20000000 1.35000000 -0.60000000 0.78823529 0.63529412 0.15294118
f 180 182 179
f 183 180 179
f 179 182 181
f 181 183 179
f 180 186 182
f 184 180 183
f 184 186 180
f 182 186 181
f 185 183 181
f 181 186 185
f 185 184 183
f 186 184 185

o geometry_25
v 3.20000000 0.15000000 0.00000000 0.78823529 0.63529412 0.15294118
v 2.60000000 0.15000000 0.00000000 0.78823529 0.63529412 0.15294118
v 3.20000000 0.15000000 -0.60000000 0.78823529 0.63529412 0.15294118
v 3.20000000 0.16200000 0.00000000 0.78823529 0.63529412 0.15294118
v 2.60000000 0.16200000 0.00000000 0.78823529 0.63529412 0.15294118
v 3.20000000 0.16200000 -0.60000000 0.78823529 0.63529412 0.15294118
f 187 189 188
f 190 191 192
f 187 188 191
f 187 191 190
f 188 189 192
f 188 192 191
f 189 187 190
f 189 190 192

o geometry_26
v 3.20000000 1.33800000 0.00000000 0.78823529 0.63529412 0.15294118
v 2.60000000 1.33800000 0.00000000 0.78823529 0.63529412 0.15294118
v 3.20000000 1.33800000 -0.60000000 0.78823529 0.63529412 0.15294118
v 3.20000000 1.35000000 0.00000000 0.78823529 0.63529412 0.15294118
v 2.60000000 1.35000000 0.00000000 0.78823529 0.63529412 0.15294118
v 3.20000000 1.35000000 -0.60000000 0.78823529 0.63529412 0.15294118
f 193 195 194
f 196 197 198
f 193 194 197
f 193 197 196
f 194 195 198
f 194 198 197
f 195 193 196
f 195 196 198

o geometry_27
v 3.18800000 1.36200000 -0.01200000 0.94117647 0.54901961 0.03921569
v 2.60000000 1.36200000 -0.01200000 0.94117647 0.54901961 0.03921569
v 3.18800000 1.36200000 -0.60000000 0.94117647 0.54901961 0.03921569
v 3.18800000 2.53800000 -0.01200000 0.94117647 0.54901961 0.03921569
v 2.60000000 2.53800000 -0.01200000 0.94117647 0.54901961 0.03921569
v 3.18800000 2.53800000 -0.60000000 0.94117647 0.54901961 0.03921569
f 199 201 200
f 202 203 204
f 199 200 203
f 199 203 202
f 200 201 204
f 200 204 203
f 201 199 202
f 201 202 204

o geometry_28
v 2.60000000 1.35000000 0.00000000 0.78823529 0.63529412 0.15294118
v 2.60000000 2.55000000 0.00000000 0.78823529 0.63529412 0.15294118
v 2.60000000 1.35000000 -0.01200000 0.78823529 0.63529412 0.15294118
v 2.60000000 2.55000000 -0.01200000 0.78823529 0.63529412 0.15294118
v 3.20000000 1.35000000 0.00000000 0.78823529 0.63529412 0.15294118
v 3.20000000 2.55000000 0.00000000 0.78823529 0.63529412 0.15294118
v 3.20000000 1.35000000 -0.01200000 0.78823529 0.63529412 0.15294118
v 3.20000000 2.55000000 -0.01200000 0.78823529 0.63529412 0.15294118
f 206 208 205
f 209 206 205
f 205 208 207
f 207 209 205
f 206 212 208
f 210 206 209
f 210 212 206
f 208 212 207
f 211 209 207
f 207 212 211
f 211 210 209
f 212 210 211

o geometry_29
v 3.18800000 1.35000000 0.00000000 0.78823529 0.63529412 0.15294118
v 3.18800000 2.55000000 0.00000000 0.78823529 0.63529412 0.15294118
v 3.18800000 1.35000000 -0.60000000 0.78823529 0.63529412 0.15294118
v 3.18800000 2.55000000 -0.60000000 0.78823529 0.63529412 0.15294118
v 3.20000000 1.35000000 0.00000000 0.78823529 0.63529412 0.15294118
v 3.20000000 2.55000000 0.00000000 0.78823529 0.63529412 0.15294118
v 3.20000000 1.35000000 -0.60000000 0.78823529 0.63529412 0.15294118
v 3.20000000 2.55000000 -0.60000000 0.78823529 0.63529412 0.15294118
f 214 216 213
f 217 214 213
f 213 216 215
f 215 217 213
f 214 220 216
f 218 214 217
f 218 220 214
f 216 220 215
f 219 217 215
f 215 220 219
f 219 218 217
f 220 218 219

o geometry_30
v 3.20000000 1.35000000 0.00000000 0.78823529 0.63529412 0.15294118
v 2.60000000 1.35000000 0.00000000 0.78823529 0.63529412 0.15294118
v 3.20000000 1.35000000 -0.60000000 0.78823529 0.63529412 0.15294118
v 3.20000000 1.36200000 0.00000000 0.78823529 0.63529412 0.15294118
v 2.60000000 1.36200000 0.00000000 0.78823529 0.63529412 0.15294118
v 3.20000000 1.36200000 -0.60000000 0.78823529 0.63529412 0.15294118
f 221 223 222
f 224 225 226
f 221 222 225
f 221 225 224
f 222 223 226
f 222 226 225
f 223 221 224
f 223 224 226

o geometry_31
v 3.20000000 2.53800000 0.00000000 0.78823529 0.63529412 0.15294118
v 2.60000000 2.53800000 0.00000000 0.78823529 0.63529412 0.15294118
v 3.20000000 2.53800000 -0.60000000 0.78823529 0.63529412 0.15294118
v 3.20000000 2.55000000 0.00000000 0.78823529 0.63529412 0.15294118
v 2.60000000 2.55000000 0.00000000 0.78823529 0.63529412 0.15294118
v 3.20000000 2.55000000 -0.60000000 0.78823529 0.63529412 0.15294118
f 227 229 228
f 230 231 232
f 227 228 231
f 227 231 230
f 228 229 232
f 228 232 231
f 229 227 230
f 229 230 232

o geometry_32
v 0.01200000 0.16200000 -2.98800000 0.94117647 0.54901961 0.03921569
v 0.60000000 0.16200000 -2.98800000 0.94117647 0.54901961 0.03921569
v 0.01200000 0.16200000 -2.40000000 0.94117647 0.54901961 0.03921569
v 0.01200000 1.33800000 -2.98800000 0.94117647 0.54901961 0.03921569
v 0.60000000 1.33800000 -2.98800000 0.94117647 0.54901961 0.03921569
v 0.01200000 1.33800000 -2.40000000 0.94117647 0.54901961 0.03921569
f 233 235 234
f 236 237 238
f 233 234 237
f 233 237 236
f 234 235 238
f 234 238 237
f 235 233 236
f 235 236 238

o geometry_33
v 0.00000000 0.15000000 -2.98800000 0.78823529 0.63529412 0.15294118
v 0.00000000 1.35000000 -2.98800000 0.78823529 0.63529412 0.15294118
v 0.00000000 0.15000000 -3.00000000 0.78823529 0.63529412 0.15294118
v 0.00000000 1.35000000 -3.00000000 0.78823529 0.63529412 0.15294118
v 0.60000000 0.15000000 -2.98800000 0.78823529 0.63529412 0.15294118
v 0.60000000 1.35000000 -2.98800000 0.78823529 0.63529412 0.15294118
v 0.60000000 0.15000000 -3.00000000 0.78823529 0.63529412 0.15294118
v 0.60000000 1.35000000 -3.00000000 0.78823529 0.63529412 0.15294118
f 240 242 239
f 243 240 239
f 239 242 241
f 241 243 239
f 240 246 242
f 244 240 243
f 244 246 240
f 242 246 241
f 245 243 241
f 241 246 245
f 245 244 243
f 246 244 245

o geometry_34
v 0.00000000 0.15000000 -2.40000000 0.78823529 0.63529412 0.15294118
v 0.00000000 1.35000000 -2.40000000 0.78823529 0.63529412 0.15294118
v 0.00000000 0.15000000 -3.00000000 0.78823529 0.63529412 0.15294118
v 0.00000000 1.35000000 -3.00000000 0.78823529 0.63529412 0.15294118
v 0.01200000 0.15000000 -2.40000000 0.78823529 0.63529412 0.15294118
v 0.01200000 1.35000000 -2.40000000 0.78823529 0.63529412 0.15294118
v 0.01200000 0.15000000 -3.00000000 0.78823529 0.63529412 0.15294118
v 0.01200000 1.35000000 -3.00000000 0.78823529 0.63529412 0.15294118
f 248 250 247
f 251 248 247
f 247 250 249
f 249 251 247
f 248 254 250
f 252 248 251
f 252 254 248
f 250 254 249
f 253 251 249
f 249 254 253
f 253 252 251
f 254 252 253

o geometry_35
v 0.00000000 0.15000000 -3.00000000 0.78823529 0.63529412 0.15294118
v 0.60000000 0.15000000 -3.00000000 0.78823529 0.63529412 0.15294118
v 0.00000000 0.15000000 -2.40000000 0.78823529 0.63529412 0.15294118
v 0.00000000 0.16200000 -3.00000000 0.78823529 0.63529412 0.15294118
v 0.60000000 0.16200000 -3.00000000 0.78823529 0.63529412 0.15294118
v 0.00000000 0.16200000 -2.40000000 0.78823529 0.63529412 0.15294118
f 255 257 256
f 258 259 260
f 255 256 259
f 255 259 258
f 256 257 260
f 256 260 259
f 257 255 258
f 257 258 260

o geometry_36
v 0.00000000 1.33800000 -3.00000000 0.78823529 0.63529412 0.15294118
v 0.60000000 1.33800000 -3.00000000 0.78823529 0.63529412 0.15294118
v 0.00000000 1.33800000 -2.40000000 0.78823529 0.63529412 0.15294118
v 0.00000000 1.35000000 -3.00000000 0.78823529 0.63529412 0.15294118
v 0.60000000 1.35000000 -3.00000000 0.78823529 0.63529412 0.15294118
v 0.00000000 1.35000000 -2.40000000 0.78823529 0.63529412 0.15294118
f 261 263 262
f 264 265 266
f 261 262 265
f 261 265 264
f 262 263 266
f 262 266 265
f 263 261 264
f 263 264 266

o geometry_37
v 0.01200000 1.36200000 -2.98800000 0.94117647 0.54901961 0.03921569
v 0.60000000 1.36200000 -2.98800000 0.94117647 0.54901961 0.03921569
v 0.01200000 1.36200000 -2.40000000 0.94117647 0.54901961 0.03921569
v 0.01200000 2.53800000 -2.98800000 0.94117647 0.54901961 0.03921569
v 0.60000000 2.53800000 -2.98800000 0.94117647 0.54901961 0.03921569
v 0.01200000 2.53800000 -2.40000000 0.94117647 0.54901961 0.03921569
f 267 269 268
f 270 271 272
f 267 268 271
f 267 271 270
f 268 269 272
f 268 272 271
f 269 267 270
f 269 270 272

o geometry_38
v 0.00000000 1.35000000 -2.98800000 0.78823529 0.63529412 0.15294118
v 0.00000000 2.55000000 -2.98800000 0.78823529 0.63529412 0.15294118
v 0.00000000 1.35000000 -3.00000000 0.78823529 0.63529412 0.15294118
v 0.00000000 2.55000000 -3.00000000 0.78823529 0.63529412 0.15294118
v 0.60000000 1.35000000 -2.98800000 0.78823529 0.63529412 0.15294118
v 0.60000000 2.55000000 -2.98800000 0.78823529 0.63529412 0.15294118
v 0.60000000 1.35000000 -3.00000000 0.78823529 0.63529412 0.15294118
v 0.60000000 2.55000000 -3.00000000 0.78823529 0.63529412 0.15294118
f 274 276 273
f 277 274 273
f 273 276 275
f 275 277 273
f 274 280 276
f 278 274 277
f 278 280 274
f 276 280 275
f 279 277 275
f 275 280 279
f 279 278 277
f 280 278 279

o geometry_39
v 0.00000000 1.35000000 -2.40000000 0.78823529 0.63529412 0.15294118
v 0.00000000 2.55000000 -2.40000000 0.78823529 0.63529412 0.15294118
v 0.00000000 1.35000000 -3.00000000 0.78823529 0.63529412 0.15294118
v 0.00000000 2.55000000 -3.00000000 0.78823529 0.63529412 0.15294118
v 0.01200000 1.35000000 -2.40000000 0.78823529 0.63529412 0.15294118
v 0.01200000 2.55000000 -2.40000000 0.78823529 0.63529412 0.15294118
v 0.01200000 1.35000000 -3.00000000 0.78823529 0.63529412 0.15294118
v 0.01200000 2.55000000 -3.00000000 0.78823529 0.63529412 0.15294118
f 282 284 281
f 285 282 281
f 281 284 283
f 283 285 281
f 282 288 284
f 286 282 285
f 286 288 282
f 284 288 283
f 287 285 283
f 283 288 287
f 287 286 285
f 288 286 287

o geometry_40
v 0.00000000 1.35000000 -3.00000000 0.78823529 0.63529412 0.15294118
v 0.60000000 1.35000000 -3.00000000 0.78823529 0.63529412 0.15294118
v 0.00000000 1.35000000 -2.40000000 0.78823529 0.63529412 0.15294118
v 0.00000000 1.36200000 -3.00000000 0.78823529 0.63529412 0.15294118
v 0.60000000 1.36200000 -3.00000000 0.78823529 0.63529412 0.15294118
v 0.00000000 1.36200000 -2.40000000 0.78823529 0.63529412 0.15294118
f 289 291 290
f 292 293 294
f 289 290 293
f 289 293 292
f 290 291 294
f 290 294 293
f 291 289 292
f 291 292 294

o geometry_41
v 0.00000000 2.53800000 -3.00000000 0.78823529 0.63529412 0.15294118
v 0.60000000 2.53800000 -3.00000000 0.78823529 0.63529412 0.15294118
v 0.00000000 2.53800000 -2.40000000 0.78823529 0.63529412 0.15294118
v 0.00000000 2.55000000 -3.00000000 0.78823529 0.63529412 0.15294118
v 0.60000000 2.55000000 -3.00000000 0.78823529 0.63529412 0.15294118
v 0.00000000 2.55000000 -2.40000000 0.78823529 0.63529412 0.15294118
f 295 297 296
f 298 299 300
f 295 296 299
f 295 299 298
f 296 297 300
f 296 300 299
f 297 295 298
f 297 298 300

o geometry_42
v 3.18800000 0.16200000 -2.98800000 0.94117647 0.54901961 0.03921569
v 2.60000000 0.16200000 -2.98800000 0.94117647 0.54901961 0.03921569
v 3.18800000 0.16200000 -2.40000000 0.94117647 0.54901961 0.03921569
v 3.18800000 1.33800000 -2.98800000 0.94117647 0.54901961 0.03921569
v 2.60000000 1.33800000 -2.98800000 0.94117647 0.54901961 0.03921569
v 3.18800000 1.33800000 -2.40000000 0.94117647 0.54901961 0.03921569
f 301 303 302
f 304 305 306
f 301 302 305
f 301 305 304
f 302 303 306
f 302 306 305
f 303 301 304
f 303 304 306

o geometry_43
v 2.60000000 0.15000000 -2.98800000 0.78823529 0.63529412 0.15294118
v 2.60000000 1.35000000 -2.98800000 0.78823529 0.63529412 0.15294118
v 2.60000000 0.15000000 -3.00000000 0.78823529 0.63529412 0.15294118
v 2.60000000 1.35000000 -3.00000000 0.78823529 0.63529412 0.15294118
v 3.20000000 0.15000000 -2.98800000 0.78823529 0.63529412 0.15294118
v 3.20000000 1.35000000 -2.98800000 0.78823529 0.63529412 0.15294118
v 3.20000000 0.15000000 -3.00000000 0.78823529 0.63529412 0.15294118
v 3.20000000 1.35000000 -3.00000000 0.78823529 0.63529412 0.15294118
f 308 310 307
f 311 308 307
f 307 310 309
f 309 311 307
f 308 314 310
f 312 308 311
f 312 314 308
f 310 314 309
f 313 311 309
f 309 314 313
f 313 312 311
f 314 312 313

o geometry_44
v 3.18800000 0.15000000 -2.40000000 0.78823529 0.63529412 0.15294118
v 3.18800000 1.35000000 -2.40000000 0.78823529 0.63529412 0.15294118
v 3.18800000 0.15000000 -3.00000000 0.78823529 0.63529412 0.15294118
v 3.18800000 1.35000000 -3.00000000 0.78823529 0.63529412 0.15294118
v 3.20000000 0.15000000 -2.40000000 0.78823529 0.63529412 0.15294118
v 3.20000000 1.35000000 -2.40000000 0.78823529 0.63529412 0.15294118
v 3.20000000 0.15000000 -3.00000000 0.78823529 0.63529412 0.15294118
v 3.20000000 1.35000000 -3.00000000 0.78823529 0.63529412 0.15294118
f 316 318 315
f 319 316 315
f 315 318 317
f 317 319 315
f 316 322 318
f 320 316 319
f 320 322 316
f 318 322 317
f 321 319 317
f 317 322 321
f 321 320 319
f 322 320 321

o geometry_45
v 3.20000000 0.15000000 -3.00000000 0.78823529 0.63529412 0.15294118
v 2.60000000 0.15000000 -3.00000000 0.78823529 0.63529412 0.15294118
v 3.20000000 0.15000000 -2.40000000 0.78823529 0.63529412 0.15294118
v 3.20000000 0.16200000 -3.00000000 0.78823529 0.63529412 0.15294118
v 2.60000000 0.16200000 -3.00000000 0.78823529 0.63529412 0.15294118
v 3.20000000 0.16200000 -2.40000000 0.78823529 0.63529412 0.15294118
f 323 325 324
f 326 327 328
f 323 324 327
f 323 327 326
f 324 325 328
f 324 328 327
f 325 323 326
f 325 326 328

o geometry_46
v 3.20000000 1.33800000 -3.00000000 0.78823529 0.63529412 0.15294118
v 2.60000000 1.33800000 -3.00000000 0.78823529 0.63529412 0.15294118
v 3.20000000 1.33800000 -2.40000000 0.78823529 0.63529412 0.15294118
v 3.20000000 1.35000000 -3.00000000 0.78823529 0.63529412 0.15294118
v 2.60000000 1.35000000 -3.00000000 0.78823529 0.63529412 0.15294118
v 3.20000000 1.35000000 -2.40000000 0.78823529 0.63529412 0.15294118
f 329 331 330
f 332 333 334
f 329 330 333
f 329 333 332
f 330 331 334
f 330 334 333
f 331 329 332
f 331 332 334

o geometry_47
v 3.18800000 1.36200000 -2.98800000 0.94117647 0.54901961 0.03921569
v 2.60000000 1.36200000 -2.98800000 0.94117647 0.54901961 0.03921569
v 3.18800000 1.36200000 -2.40000000 0.94117647 0.54901961 0.03921569
v 3.18800000 2.53800000 -2.98800000 0.94117647 0.54901961 0.03921569
v 2.60000000 2.53800000 -2.98800000 0.94117647 0.54901961 0.03921569
v 3.18800000 2.53800000 -2.40000000 0.94117647 0.54901961 0.03921569
f 335 337 336
f 338 339 340
f 335 336 339
f 335 339 338
f 336 337 340
f 336 340 339
f 337 335 338
f 337 338 340

o geometry_48
v 2.60000000 1.35000000 -2.98800000 0.78823529 0.63529412 0.15294118
v 2.60000000 2.55000000 -2.98800000 0.78823529 0.63529412 0.15294118
v 2.60000000 1.35000000 -3.00000000 0.78823529 0.63529412 0.15294118
v 2.60000000 2.55000000 -3.00000000 0.78823529 0.63529412 0.15294118
v 3.20000000 1.35000000 -2.98800000 0.78823529 0.63529412 0.15294118
v 3.20000000 2.55000000 -2.98800000 0.78823529 0.63529412 0.15294118
v 3.20000000 1.35000000 -3.00000000 0.78823529 0.63529412 0.15294118
v 3.20000000 2.55000000 -3.00000000 0.78823529 0.63529412 0.15294118
f 342 344 341
f 345 342 341
f 341 344 343
f 343 345 341
f 342 348 344
f 346 342 345
f 346 348 342
f 344 348 343
f 347 345 343
f 343 348 347
f 347 346 345
f 348 346 347

o geometry_49
v 3.18800000 1.35000000 -2.40000000 0.78823529 0.63529412 0.15294118
v 3.18800000 2.55000000 -2.40000000 0.78823529 0.63529412 0.15294118
v 3.18800000 1.35000000 -3.00000000 0.78823529 0.63529412 0.15294118
v 3.18800000 2.55000000 -3.00000000 0.78823529 0.63529412 0.15294118
v 3.20000000 1.35000000 -2.40000000 0.78823529 0.63529412 0.15294118
v 3.20000000 2.55000000 -2.40000000 0.78823529 0.63529412 0.15294118
v 3.20000000 1.35000000 -3.00000000 0.78823529 0.63529412 0.15294118
v 3.20000000 2.55000000 -3.00000000 0.78823529 0.63529412 0.15294118
f 350 352 349
f 353 350 349
f 349 352 351
f 351 353 349
f 350 356 352
f 354 350 353
f 354 356 350
f 352 356 351
f 355 353 351
f 351 356 355
f 355 354 353
f 356 354 355

o geometry_50
v 3.20000000 1.35000000 -3.00000000 0.78823529 0.63529412 0.15294118
v 2.60000000 1.35000000 -3.00000000 0.78823529 0.63529412 0.15294118
v 3.20000000 1.35000000 -2.40000000 0.78823529 0.63529412 0.15294118
v 3.20000000 1.36200000 -3.00000000 0.78823529 0.63529412 0.15294118
v 2.60000000 1.36200000 -3.00000000 0.78823529 0.63529412 0.15294118
v 3.20000000 1.36200000 -2.40000000 0.78823529 0.63529412 0.15294118
f 357 359 358
f 360 361 362
f 357 358 361
f 357 361 360
f 358 359 362
f 358 362 361
f 359 357 360
f 359 360 362

o geometry_51
v 3.20000000 2.53800000 -3.00000000 0.78823529 0.63529412 0.15294118
v 2.60000000 2.53800000 -3.00000000 0.78823529 0.63529412 0.15294118
v 3.20000000 2.53800000 -2.40000000 0.78823529 0.63529412 0.15294118
v 3.20000000 2.55000000 -3.00000000 0.78823529 0.63529412 0.15294118
v 2.60000000 2.55000000 -3.00000000 0.78823529 0.63529412 0.15294118
v 3.20000000 2.55000000 -2.40000000 0.78823529 0.63529412 0.15294118
f 363 365 364
f 366 367 368
f 363 364 367
f 363 367 366
f 364 365 368
f 364 368 367
f 365 363 366
f 365 366 368

o geometry_52
v 2.60000000 0.73000000 -0.65000000 0.71764706 0.71764706 0.71764706
v 2.60000000 0.78000000 -0.65000000 0.71764706 0.71764706 0.71764706
v 2.60000000 0.73000000 -2.35000000 0.71764706 0.71764706 0.71764706
v 2.60000000 0.78000000 -2.35000000 0.71764706 0.71764706 0.71764706
v 3.20000000 0.73000000 -0.65000000 0.71764706 0.71764706 0.71764706
v 3.20000000 0.78000000 -0.65000000 0.71764706 0.71764706 0.71764706
v 3.20000000 0.73000000 -2.35000000 0.71764706 0.71764706 0.71764706
v 3.20000000 0.78000000 -2.35000000 0.71764706 0.71764706 0.71764706
f 370 372 369
f 373 370 369
f 369 372 371
f 371 373 369
f 370 376 372
f 374 370 373
f 374 376 370
f 372 376 371
f 375 373 371
f 371 376 375
f 375 374 373
f 376 374 375

o geometry_53
v 2.62500000 0.00000000 -0.60000000 0.66274510 0.66274510 0.66274510
v 2.62500000 0.72000000 -0.60000000 0.66274510 0.66274510 0.66274510
v 2.62500000 0.00000000 -1.10000000 0.66274510 0.66274510 0.66274510
v 2.62500000 0.72000000 -1.10000000 0.66274510 0.66274510 0.66274510
v 3.17500000 0.00000000 -0.60000000 0.66274510 0.66274510 0.66274510
v 3.17500000 0.72000000 -0.60000000 0.66274510 0.66274510 0.66274510
v 3.17500000 0.00000000 -1.10000000 0.66274510 0.66274510 0.66274510
v 3.17500000 0.72000000 -1.10000000 0.66274510 0.66274510 0.66274510
f 378 380 377
f 381 378 377
f 377 380 379
f 379 381 377
f 378 384 380
f 382 378 381
f 382 384 378
f 380 384 379
f 383 381 379
f 379 384 383
f 383 382 381
f 384 382 383

o geometry_54
v 2.62500000 0.00000000 -1.90000000 0.66274510 0.66274510 0.66274510
v 2.62500000 0.72000000 -1.90000000 0.66274510 0.66274510 0.66274510
v 2.62500000 0.00000000 -2.40000000 0.66274510 0.66274510 0.66274510
v 2.62500000 0.72000000 -2.40000000 0.66274510 0.66274510 0.66274510
v 3.17500000 0.00000000 -1.90000000 0.66274510 0.66274510 0.66274510
v 3.17500000 0.72000000 -1.90000000 0.66274510 0.66274510 0.66274510
v 3.17500000 0.00000000 -2.40000000 0.66274510 0.66274510 0.66274510
v 3.17500000 0.72000000 -2.40000000 0.66274510 0.66274510 0.66274510
f 386 388 385
f 389 386 385
f 385 388 387
f 387 389 385
f 386 392 388
f 390 386 389
f 390 392 386
f 388 392 387
f 391 389 387
f 387 392 391
f 391 390 389
f 392 390 391

o geometry_55
v 2.64500000 0.84000000 -0.95000000 0.43529412 0.43529412 0.43529412
v 2.64500000 1.14000000 -0.95000000 0.43529412 0.43529412 0.43529412
v 2.64500000 0.84000000 -1.41000000 0.43529412 0.43529412 0.43529412
v 2.64500000 1.14000000 -1.41000000 0.43529412 0.43529412 0.43529412
v 2.71500000 0.84000000 -0.95000000 0.43529412 0.43529412 0.43529412
v 2.71500000 1.14000000 -0.95000000 0.43529412 0.43529412 0.43529412
v 2.71500000 0.84000000 -1.41000000 0.43529412 0.43529412 0.43529412
v 2.71500000 1.14000000 -1.41000000 0.43529412 0.43529412 0.43529412
f 394 396 393
f 397 394 393
f 393 396 395
f 395 397 393
f 394 400 396
f 398 394 397
f 398 400 394
f 396 400 395
f 399 397 395
f 395 400 399
f 399 398 397
f 400 398 399

o geometry_56
v 2.62000000 0.79000000 -1.06000000 0.56078431 0.56078431 0.56078431
v 2.62000000 0.93000000 -1.06000000 0.56078431 0.56078431 0.56078431
v 2.62000000 0.79000000 -1.30000000 0.56078431 0.56078431 0.56078431
v 2.62000000 0.93000000 -1.30000000 0.56078431 0.56078431 0.56078431
v 2.74000000 0.79000000 -1.06000000 0.56078431 0.56078431 0.56078431
v 2.74000000 0.93000000 -1.06000000 0.56078431 0.56078431 0.56078431
v 2.74000000 0.79000000 -1.30000000 0.56078431 0.56078431 0.56078431
v 2.74000000 0.93000000 -1.30000000 0.56078431 0.56078431 0.56078431
f 402 404 401
f 405 402 401
f 401 404 403
f 403 405 401
f 402 408 404
f 406 402 405
f 406 408 402
f 404 408 403
f 407 405 403
f 403 408 407
f 407 406 405
f 408 406 407

o geometry_57
v 2.64500000 0.84000000 -1.59000000 0.43529412 0.43529412 0.43529412
v 2.64500000 1.14000000 -1.59000000 0.43529412 0.43529412 0.43529412
v 2.64500000 0.84000000 -2.05000000 0.43529412 0.43529412 0.43529412
v 2.64500000 1.14000000 -2.05000000 0.43529412 0.43529412 0.43529412
v 2.71500000 0.84000000 -1.59000000 0.43529412 0.43529412 0.43529412
v 2.71500000 1.14000000 -1.59000000 0.43529412 0.43529412 0.43529412
v 2.71500000 0.84000000 -2.05000000 0.43529412 0.43529412 0.43529412
v 2.71500000 1.14000000 -2.05000000 0.43529412 0.43529412 0.43529412
f 410 412 409
f 413 410 409
f 409 412 411
f 411 413 409
f 410 416 412
f 414 410 413
f 414 416 410
f 412 416 411
f 415 413 411
f 411 416 415
f 415 414 413
f 416 414 415

o geometry_58
v 2.62000000 0.79000000 -1.70000000 0.56078431 0.56078431 0.56078431
v 2.62000000 0.93000000 -1.70000000 0.56078431 0.56078431 0.56078431
v 2.62000000 0.79000000 -1.94000000 0.56078431 0.56078431 0.56078431
v 2.62000000 0.93000000 -1.94000000 0.56078431 0.56078431 0.56078431
v 2.74000000 0.79000000 -1.70000000 0.56078431 0.56078431 0.56078431
v 2.74000000 0.93000000 -1.70000000 0.56078431 0.56078431 0.56078431
v 2.74000000 0.79000000 -1.94000000 0.56078431 0.56078431 0.56078431
v 2.74000000 0.93000000 -1.94000000 0.56078431 0.56078431 0.56078431
f 418 420 417
f 421 418 417
f 417 420 419
f 419 421 417
f 418 424 420
f 422 418 421
f 422 424 418
f 420 424 419
f 423 421 419
f 419 424 423
f 423 422 421
f 424 422 423

o geometry_59
v 1.65000000 0.42000000 -1.25000000 0.81176471 0.81176471 0.81176471
v 1.65000000 0.48000000 -1.25000000 0.81176471 0.81176471 0.81176471
v 1.65000000 0.42000000 -1.75000000 0.81176471 0.81176471 0.81176471
v 1.65000000 0.48000000 -1.75000000 0.81176471 0.81176471 0.81176471
v 2.15000000 0.42000000 -1.25000000 0.81176471 0.81176471 0.81176471
v 2.15000000 0.48000000 -1.25000000 0.81176471 0.81176471 0.81176471
v 2.15000000 0.42000000 -1.75000000 0.81176471 0.81176471 0.81176471
v 2.15000000 0.48000000 -1.75000000 0.81176471 0.81176471 0.81176471
f 426 428 425
f 429 426 425
f 425 428 427
f 427 429 425
f 426 432 428
f 430 426 429
f 430 432 426
f 428 432 427
f 431 429 427
f 427 432 431
f 431 430 429
f 432 430 431

o geometry_60
v 1.57000000 0.44500000 -1.25000000 0.81176471 0.81176471 0.81176471
v 1.57000000 0.99500000 -1.25000000 0.81176471 0.81176471 0.81176471
v 1.57000000 0.44500000 -1.75000000 0.81176471 0.81176471 0.81176471
v 1.57000000 0.99500000 -1.75000000 0.81176471 0.81176471 0.81176471
v 1.65000000 0.44500000 -1.25000000 0.81176471 0.81176471 0.81176471
v 1.65000000 0.99500000 -1.25000000 0.81176471 0.81176471 0.81176471
v 1.65000000 0.44500000 -1.75000000 0.81176471 0.81176471 0.81176471
v 1.65000000 0.99500000 -1.75000000 0.81176471 0.81176471 0.81176471
f 434 436 433
f 437 434 433
f 433 436 435
f 435 437 433
f 434 440 436
f 438 434 437
f 438 440 434
f 436 440 435
f 439 437 435
f 435 440 439
f 439 438 437
f 440 438 439

o geometry_61
v 1.86500000 0.07000000 -1.46500000 0.81176471 0.81176471 0.81176471
v 1.86500000 0.25000000 -1.46500000 0.81176471 0.81176471 0.81176471
v 1.86500000 0.07000000 -1.53500000 0.81176471 0.81176471 0.81176471
v 1.86500000 0.25000000 -1.53500000 0.81176471 0.81176471 0.81176471
v 1.93500000 0.07000000 -1.46500000 0.81176471 0.81176471 0.81176471
v 1.93500000 0.25000000 -1.46500000 0.81176471 0.81176471 0.81176471
v 1.93500000 0.07000000 -1.53500000 0.81176471 0.81176471 0.81176471
v 1.93500000 0.25000000 -1.53500000 0.81176471 0.81176471 0.81176471
f 442 444 441
f 445 442 441
f 441 444 443
f 443 445 441
f 442 448 444
f 446 442 445
f 446 448 442
f 444 448 443
f 447 445 443
f 443 448 447
f 447 446 445
f 448 446 447

o geometry_62
v 1.70000000 0.01000000 -1.30000000 0.81176471 0.81176471 0.81176471
v 1.70000000 0.05000000 -1.30000000 0.81176471 0.81176471 0.81176471
v 1.70000000 0.01000000 -1.70000000 0.81176471 0.81176471 0.81176471
v 1.70000000 0.05000000 -1.70000000 0.81176471 0.81176471 0.81176471
v 2.10000000 0.01000000 -1.30000000 0.81176471 0.81176471 0.81176471
v 2.10000000 0.05000000 -1.30000000 0.81176471 0.81176471 0.81176471
v 2.10000000 0.01000000 -1.70000000 0.81176471 0.81176471 0.81176471
v 2.10000000 0.05000000 -1.70000000 0.81176471 0.81176471 0.81176471
f 450 452 449
f 453 450 449
f 449 452 451
f 451 453 449
f 450 456 452
f 454 450 453
f 454 456 450
f 452 456 451
f 455 453 451
f 451 456 455
f 455 454 453
f 456 454 455

o geometry_63
v 1.10000000 0.90000000 -2.97500000 0.45490196 0.71372549 0.83137255
v 1.10000000 2.10000000 -2.97500000 0.45490196 0.71372549 0.83137255
v 1.10000000 0.90000000 -2.99500000 0.45490196 0.71372549 0.83137255
v 1.10000000 2.10000000 -2.99500000 0.45490196 0.71372549 0.83137255
v 2.30000000 0.90000000 -2.97500000 0.45490196 0.71372549 0.83137255
v 2.30000000 2.10000000 -2.97500000 0.45490196 0.71372549 0.83137255
v 2.30000000 0.90000000 -2.99500000 0.45490196 0.71372549 0.83137255
v 2.30000000 2.10000000 -2.99500000 0.45490196 0.71372549 0.83137255
f 458 460 457
f 461 458 457
f 457 460 459
f 459 461 457
f 458 464 460
f 462 458 461
f 462 464 458
f 460 464 459
f 463 461 459
f 459 464 463
f 463 462 461
f 464 462 463

o geometry_64
v 0.15000000 0.00000000 -0.00500000 0.70980392 0.54509804 0.32156863
v 0.15000000 2.00000000 -0.00500000 0.70980392 0.54509804 0.32156863
v 0.15000000 0.00000000 -0.02500000 0.70980392 0.54509804 0.32156863
v 0.15000000 2.00000000 -0.02500000 0.70980392 0.54509804 0.32156863
v 0.95000000 0.00000000 -0.00500000 0.70980392 0.54509804 0.32156863
v 0.95000000 2.00000000 -0.00500000 0.70980392 0.54509804 0.32156863
v 0.95000000 0.00000000 -0.02500000 0.70980392 0.54509804 0.32156863
v 0.95000000 2.00000000 -0.02500000 0.70980392 0.54509804 0.32156863
f 466 468 465
f 469 466 465
f 465 468 467
f 467 469 465
f 466 472 468
f 470 466 469
f 470 472 466
f 468 472 467
f 471 469 467
f 467 472 471
f 471 470 469
f 472 470 471

o geometry_65
v -0.05000000 -0.08000000 0.05000000 0.81568627 0.81568627 0.81568627
v -0.05000000 0.00000000 0.05000000 0.81568627 0.81568627 0.81568627
v -0.05000000 -0.08000000 -3.05000000 0.81568627 0.81568627 0.81568627
v -0.05000000 0.00000000 -3.05000000 0.81568627 0.81568627 0.81568627
v 3.25000000 -0.08000000 0.05000000 0.81568627 0.81568627 0.81568627
v 3.25000000 0.00000000 0.05000000 0.81568627 0.81568627 0.81568627
v 3.25000000 -0.08000000 -3.05000000 0.81568627 0.81568627 0.81568627
v 3.25000000 0.00000000 -3.05000000 0.81568627 0.81568627 0.81568627
f 474 476 473
f 477 474 473
f 473 476 475
f 475 477 473
f 474 480 476
f 478 474 477
f 478 480 474
f 476 480 475
f 479 477 475
f 475 480 479
f 479 478 477
f 480 478 479

o geometry_66
v 0.00000000 0.00000000 0.02500000 0.77647059 0.77647059 0.77647059
v 0.00000000 3.00000000 0.02500000 0.77647059 0.77647059 0.77647059
v 0.00000000 0.00000000 -3.02500000 0.77647059 0.77647059 0.77647059
v 0.00000000 3.00000000 -3.02500000 0.77647059 0.77647059 0.77647059
v 0.05000000 0.00000000 0.02500000 0.77647059 0.77647059 0.77647059
v 0.05000000 3.00000000 0.02500000 0.77647059 0.77647059 0.77647059
v 0.05000000 0.00000000 -3.02500000 0.77647059 0.77647059 0.77647059
v 0.05000000 3.00000000 -3.02500000 0.77647059 0.77647059 0.77647059
f 482 484 481
f 485 482 481
f 481 484 483
f 483 485 481
f 482 488 484
f 486 482 485
f 486 488 482
f 484 488 483
f 487 485 483
f 483 488 487
f 487 486 485
f 488 486 487

o geometry_67
v 3.15000000 0.00000000 0.02500000 0.77647059 0.77647059 0.77647059
v 3.15000000 3.00000000 0.02500000 0.77647059 0.77647059 0.77647059
v 3.15000000 0.00000000 -3.02500000 0.77647059 0.77647059 0.77647059
v 3.15000000 3.00000000 -3.02500000 0.77647059 0.77647059 0.77647059
v 3.20000000 0.00000000 0.02500000 0.77647059 0.77647059 0.77647059
v 3.20000000 3.00000000 0.02500000 0.77647059 0.77647059 0.77647059
v 3.20000000 0.00000000 -3.02500000 0.77647059 0.77647059 0.77647059
v 3.20000000 3.00000000 -3.02500000 0.77647059 0.77647059 0.77647059
f 490 492 489
f 493 490 489
f 489 492 491
f 491 493 489
f 490 496 492
f 494 490 493
f 494 496 490
f 492 496 491
f 495 493 491
f 491 496 495
f 495 494 493
f 496 494 495

o geometry_68
v -0.02500000 0.00000000 0.00000000 0.77647059 0.77647059 0.77647059
v -0.02500000 3.00000000 0.00000000 0.77647059 0.77647059 0.77647059
v -0.02500000 0.00000000 -0.05000000 0.77647059 0.77647059 0.77647059
v -0.02500000 3.00000000 -0.05000000 0.77647059 0.77647059 0.77647059
v 3.22500000 0.00000000 0.00000000 0.77647059 0.77647059 0.77647059
v 3.22500000 3.00000000 0.00000000 0.77647059 0.77647059 0.77647059
v 3.22500000 0.00000000 -0.05000000 0.77647059 0.77647059 0.77647059
v 3.22500000 3.00000000 -0.05000000 0.77647059 0.77647059 0.77647059
f 498 500 497
f 501 498 497
f 497 500 499
f 499 501 497
f 498 504 500
f 502 498 501
f 502 504 498
f 500 504 499
f 503 501 499
f 499 504 503
f 503 502 501
f 504 502 503

o geometry_69
v -0.02500000 0.00000000 -2.95000000 0.77647059 0.77647059 0.77647059
v -0.02500000 3.00000000 -2.95000000 0.77647059 0.77647059 0.77647059
v -0.02500000 0.00000000 -3.00000000 0.77647059 0.77647059 0.77647059
v -0.02500000 3.00000000 -3.00000000 0.77647059 0.77647059 0.77647059
v 3.22500000 0.00000000 -2.95000000 0.77647059 0.77647059 0.77647059
v 3.22500000 3.00000000 -2.95000000 0.77647059 0.77647059 0.77647059
v 3.22500000 0.00000000 -3.00000000 0.77647059 0.77647059 0.77647059
v 3.22500000 3.00000000 -3.00000000 0.77647059 0.77647059 0.77647059
f 506 508 505
f 509 506 505
f 505 508 507
f 507 509 505
f 506 512 508
f 510 506 509
f 510 512 506
f 508 512 507
f 511 509 507
f 507 512 511
f 511 510 509
f 512 510 511

